<?xml version="1.0" standalone="no"?>
<!DOCTYPE svg PUBLIC "-//W3C//DTD SVG 20010904//EN"
 "http://www.w3.org/TR/2001/REC-SVG-20010904/DTD/svg10.dtd">
<svg version="1.0" xmlns="http://www.w3.org/2000/svg"
 width="512.000000pt" height="512.000000pt" viewBox="0 0 512.000000 512.000000"
 preserveAspectRatio="xMidYMid meet">

<g transform="translate(0.000000,512.000000) scale(0.100000,-0.100000)"
fill="#000000" stroke="none">
<path d="M2321 3360 c-192 -51 -345 -193 -419 -388 -23 -61 -26 -84 -30 -257
-2 -104 -2 -206 0 -225 l3 -35 38 72 c57 105 97 147 183 189 l75 37 147 1
c146 1 148 1 214 34 52 26 82 50 133 108 l66 75 15 -38 c29 -70 126 -207 193
-274 73 -72 153 -130 249 -178 l62 -31 0 177 c0 204 -12 271 -65 372 -71 135
-186 231 -330 277 -41 13 -98 35 -125 49 -111 56 -274 70 -409 35z"/>
<path d="M622 3145 c-35 -8 -100 -32 -145 -54 -165 -80 -283 -210 -343 -376
-39 -108 -45 -201 -36 -565 l8 -335 29 -60 c58 -122 184 -209 318 -222 l67 -6
0 102 0 103 -36 41 c-49 57 -99 166 -119 261 -19 85 -18 265 2 300 6 10 46 33
89 51 155 63 310 173 405 288 30 36 56 65 60 64 3 -1 43 -45 89 -97 47 -52
149 -162 229 -243 l144 -148 -6 -97 c-10 -167 -65 -303 -166 -414 l-51 -56 0
-77 0 -78 83 5 c121 8 187 36 268 117 48 48 72 82 90 126 23 59 24 67 27 401
3 386 -1 422 -66 554 -54 111 -169 224 -282 278 -47 22 -101 43 -120 47 -19 4
-61 21 -94 37 -127 64 -299 84 -444 53z"/>
<path d="M4005 3141 c-98 -27 -159 -55 -231 -106 -134 -96 -235 -245 -269
-397 -13 -62 -15 -130 -13 -438 3 -359 3 -366 27 -425 34 -84 134 -183 216
-214 33 -13 86 -25 118 -28 l57 -6 0 107 0 107 -35 46 c-89 117 -130 246 -129
413 0 127 9 154 51 164 56 14 212 96 289 154 43 32 113 95 155 140 l76 82 95
-108 c53 -60 155 -169 227 -244 l131 -136 0 -74 c0 -149 -63 -317 -157 -419
l-53 -57 0 -87 0 -88 85 5 c152 10 278 93 341 225 23 49 28 78 35 183 13 201
10 525 -5 610 -43 237 -201 420 -428 494 -41 13 -93 33 -114 44 -89 45 -166
64 -284 68 -92 3 -129 0 -185 -15z"/>
<path d="M357 1362 c-161 -63 -221 -101 -279 -177 -74 -97 -78 -126 -78 -561
l0 -384 769 0 770 0 3 443 c3 430 4 443 25 496 26 62 23 69 -41 106 -56 32
-358 137 -367 128 -4 -5 -59 -91 -123 -192 l-116 -184 0 -209 c0 -125 -4 -217
-10 -229 -13 -23 -62 -26 -84 -3 -14 13 -16 48 -16 223 l0 207 -142 197 c-79
108 -147 196 -153 196 -5 0 -76 -26 -158 -57z"/>
<path d="M3760 1366 c-141 -55 -180 -73 -218 -104 l-23 -18 23 -49 c23 -50 23
-54 26 -503 l3 -452 774 0 775 0 0 368 c0 400 -4 436 -57 534 -31 58 -94 118
-155 149 -44 22 -349 132 -353 127 -2 -2 -55 -86 -119 -187 l-116 -185 0 -205
c0 -231 -5 -254 -57 -259 -58 -6 -63 15 -63 246 l0 203 -141 195 c-78 107
-147 194 -153 193 -6 0 -72 -24 -146 -53z"/>
</g>
</svg>
